<?xml version="1.0" standalone="no"?>
<!DOCTYPE svg PUBLIC "-//W3C//DTD SVG 1.1//EN" "http://www.w3.org/Graphics/SVG/1.1/DTD/svg11.dtd" >
<svg>
<metadata>
Created by FontForge 20090622 at Tue Dec 13 14:13:35 2016
 By deploy user
Generated by Fontographer 3.5
</metadata>
<defs>
<font id="FederationClassic" horiz-adv-x="184" >
  <font-face 
    font-family="FederationClassic"
    font-weight="500"
    font-stretch="normal"
    units-per-em="1000"
    panose-1="0 0 0 0 0 0 0 0 0 0"
    ascent="800"
    descent="-200"
    x-height="690"
    cap-height="690"
    bbox="-92 -233 813 811"
    underline-thickness="20"
    underline-position="-123"
    unicode-range="U+0020-U+F000"
  />
<missing-glyph horiz-adv-x="811" 
d="M50 0v811h711v-811h-711zM711 50v711h-611v-711h611z" />
    <glyph glyph-name=".notdef" horiz-adv-x="811" 
d="M50 0v811h711v-811h-711zM711 50v711h-611v-711h611z" />
    <glyph glyph-name=".null" unicode="&#xd7;" horiz-adv-x="0" 
 />
    <glyph glyph-name=".null" unicode="&#x141;" horiz-adv-x="0" 
 />
    <glyph glyph-name=".null" unicode="&#xfd;" horiz-adv-x="0" 
 />
    <glyph glyph-name="nonmarkingreturn" horiz-adv-x="505" 
 />
    <glyph glyph-name="space" unicode=" " horiz-adv-x="505" 
 />
    <glyph glyph-name="exclam" unicode="!" horiz-adv-x="169" 
d="M32 690h102v-490h-102v490zM32 0v100h102v-100h-102z" />
    <glyph glyph-name="quotedbl" unicode="&#x22;" horiz-adv-x="308" 
d="M61 524l31 66h-62v100h103v-100l-35 -66h-37zM208 524l31 66h-60v100h103v-100l-37 -66h-37z" />
    <glyph glyph-name="numbersign" unicode="#" 
d="M61 524l31 66h-62v100h103v-100l-35 -66h-37z" />
    <glyph glyph-name="dollar" unicode="$" horiz-adv-x="308" 
d="M102 689l-31 -66h60v-100h-100v100l34 66h37zM249 689l-31 -66h60v-100h-101v100l35 66h37z" />
    <glyph glyph-name="percent" unicode="%" 
d="M170 690h102l-98 -490h-102zM31 0l22 100h102l-22 -100h-102z" />
    <glyph glyph-name="parenleft" unicode="(" 
d="M64 524l31 66h-62v100h102v-100l-34 -66h-37z" />
    <glyph glyph-name="comma" unicode="," 
d="M47 -66l46 66h-62l22 100h102l-21 -100l-48 -66h-39z" />
    <glyph glyph-name="period" unicode="." 
d="M31 0l22 100h102l-22 -100h-102z" />
    <glyph glyph-name="slash" unicode="/" horiz-adv-x="333" 
d="M32 0v100h102v-100h-102zM32 690h169q50 0 76 -26t26 -74v-237l-169 -86v-67h-102v127l169 87v176h-169v100z" />
    <glyph glyph-name="colon" unicode=":" horiz-adv-x="221" 
d="M79 233l21 100h102l-21 -100h-102zM31 0l22 100h102l-21 -100h-103z" />
    <glyph glyph-name="semicolon" unicode=";" horiz-adv-x="221" 
d="M47 -66l46 66h-62l22 100h102l-21 -100l-48 -66h-39zM79 233l21 100h102l-21 -100h-102z" />
    <glyph glyph-name="less" unicode="&#x3c;" 
d="M62 -66l31 66h-62v100h102v-100l-34 -66h-37z" />
    <glyph glyph-name="greater" unicode="&#x3e;" 
d="M133 0h-102v100h102v-100z" />
    <glyph glyph-name="question" unicode="?" horiz-adv-x="351" 
d="M32 0l21 100h102l-21 -100h-102zM73 200l26 136l186 87l32 167h-168l21 100h166q49 0 66 -17q20 -15 20 -50l-3 -33l-46 -237l-185 -86l-13 -67h-102z" />
    <glyph glyph-name="A" unicode="A" horiz-adv-x="362" 
d="M32 0v590q0 41 30.5 70.5t71.5 29.5h102q44 0 73 -29t29 -71v-590h-102v319l-102 -52v-267h-102zM236 432v158h-102v-210z" />
    <glyph glyph-name="B" unicode="B" horiz-adv-x="368" 
d="M32 690h205q66 0 84 -24.5t18 -75.5v-121q0 -47 -12.5 -62.5t-40.5 -30.5q20 0 36.5 -15.5t16.5 -36.5v-224q0 -54 -15.5 -77t-86.5 -23h-205v690zM134 100h103l-1 219l-102 -52v-167zM236 432l1 158h-103v-210z" />
    <glyph glyph-name="C" unicode="C" horiz-adv-x="373" 
d="M338 267v-167q0 -51 -15.5 -75.5t-85.5 -24.5h-103q-62 0 -86 24q-16 29 -16 76v490q0 54 16 77q18 23 86 23h103q65 0 83 -24.5t18 -75.5v-78l-101 -53v131h-103v-490h103l-1 115z" />
    <glyph glyph-name="D" unicode="D" horiz-adv-x="373" 
d="M32 690h205q66 0 84 -24.5t18 -75.5v-490q0 -54 -15.5 -77t-86.5 -23h-205v690zM237 100v490h-103v-490h103z" />
    <glyph glyph-name="E" unicode="E" horiz-adv-x="333" 
d="M32 690h271v-100h-169v-210l169 86v-113l-169 -86v-167h169v-100h-271v690z" />
    <glyph glyph-name="F" unicode="F" horiz-adv-x="333" 
d="M32 0v690h271v-100h-169v-210l169 86v-113l-169 -86v-267h-102z" />
    <glyph glyph-name="G" unicode="G" horiz-adv-x="370" 
d="M134 0q-62 0 -86 24q-16 29 -16 76v490q0 54 16 77q18 23 86 23h102q67 0 85 -24.5t18 -75.5v-101l-103 -53v154h-102v-490h102v173l-50 -26v113l152 78l1 -438h-205z" />
    <glyph glyph-name="H" unicode="H" horiz-adv-x="370" 
d="M134 690v-310l102 52v258h102v-690h-102v319l-102 -52v-267h-102v690h102z" />
    <glyph glyph-name="I" unicode="I" horiz-adv-x="169" 
d="M32 690h102v-690h-102v690z" />
    <glyph glyph-name="J" unicode="J" horiz-adv-x="378" 
d="M134 0q-62 0 -86 21q-16 22 -16 67v113l102 53v-154h103v590h102v-590q0 -54 -15.5 -77t-86.5 -23h-103z" />
    <glyph glyph-name="K" unicode="K" horiz-adv-x="418" 
d="M32 0v690h102v-276l116 276h112l-124 -291l155 -399h-109l-102 265l-48 -111v-154h-102z" />
    <glyph glyph-name="L" unicode="L" horiz-adv-x="321" 
d="M32 690h102v-590h159v-100h-261v690z" />
    <glyph glyph-name="M" unicode="M" horiz-adv-x="582" 
d="M32 590q0 54 16 77q18 23 86 23h102q22 0 35 -13q8 -8 17 -42l18 40q9 15 32 15h102q66 0 84 -24.5t18 -75.5v-590h-102v590h-102v-590h-102v590h-102v-590h-102v590z" />
    <glyph glyph-name="N" unicode="N" horiz-adv-x="378" 
d="M32 0v690h102v-45l12 20l13 11q14 14 47 14h31q44 0 73 -29t29 -71v-590h-102v590h-103v-590h-102z" />
    <glyph glyph-name="O" unicode="O" horiz-adv-x="375" 
d="M236 690q66 0 84 -24.5t18 -75.5v-490q0 -54 -15.5 -77t-86.5 -23h-102q-62 0 -86 24q-16 29 -16 76v490q0 54 16 77q18 23 86 23h102zM236 100v490h-102v-490h102z" />
    <glyph glyph-name="P" unicode="P" horiz-adv-x="378" 
d="M134 267v-267h-102v690h205q66 0 84 -24.5t18 -75.5l-1 -219zM237 436v154h-103v-210z" />
    <glyph glyph-name="Q" unicode="Q" horiz-adv-x="405" 
d="M236 690q66 0 84 -24.5t18 -75.5v-459l37 -18v-113l-52 26q-5 -7 -30 -20q-20 -6 -57 -6h-102q-62 0 -86 24q-16 29 -16 76v490q0 54 16 77q18 23 86 23h102zM134 100h70v101l32 -17v406h-102v-490z" />
    <glyph glyph-name="R" unicode="R" horiz-adv-x="410" 
d="M32 690h205q66 0 84 -24.5t18 -75.5l-1 -219l-93 -47l146 -324h-111l-124 277l-22 -10v-267h-102v690zM237 436v154h-103v-210z" />
    <glyph glyph-name="S" unicode="S" horiz-adv-x="370" 
d="M134 0q-62 0 -86 24q-16 29 -16 76v59l102 52v-111h103l-1 219l-204 -105v376q0 54 16 77q18 23 86 23h103q66 0 84 -24.5t18 -75.5v-44l-102 -53v97h-103v-210l204 104l1 -384q0 -54 -15.5 -77t-86.5 -23h-103z" />
    <glyph glyph-name="T" unicode="T" horiz-adv-x="390" 
d="M142 0v590h-120v100h344v-100h-122v-590h-102z" />
    <glyph glyph-name="U" unicode="U" horiz-adv-x="375" 
d="M134 690v-590h102v590h102v-590q0 -54 -15.5 -77t-86.5 -23h-102q-62 0 -86 24q-16 29 -16 76v590h102z" />
    <glyph glyph-name="V" unicode="V" horiz-adv-x="370" 
d="M236 217v473h102v-534l-306 -155v689h102v-525z" />
    <glyph glyph-name="W" unicode="W" horiz-adv-x="577" 
d="M29 690h102v-590h102v590h102v-590h102v590h102v-590q0 -54 -15.5 -77t-86.5 -23h-102q-18 0 -29 11l-9 16l-12 28l-3 -16q-3 -12 -11 -23q-8 -16 -38 -16h-102q-62 0 -86 24q-16 29 -16 76v590z" />
    <glyph glyph-name="X" unicode="X" horiz-adv-x="477" 
d="M42 0l144 377l-116 313h109l61 -165l64 165h109l-117 -309l144 -381h-108l-91 238l-90 -238h-109z" />
    <glyph glyph-name="Y" unicode="Y" horiz-adv-x="370" 
d="M134 150v-50h102v219l-204 -105v476h102v-310l102 52v258h102v-590q0 -54 -15.5 -77t-86.5 -23h-102q-62 0 -86 24q-16 29 -16 76z" />
    <glyph glyph-name="Z" unicode="Z" horiz-adv-x="368" 
d="M204 590h-172v100h306l-169 -590h169v-100h-306z" />
    <glyph glyph-name="a" unicode="a" horiz-adv-x="384" 
d="M32 0l116 590q10 40 45 70t79 30h102q35 0 59 -23.5t24 -58.5l-3 -18l-116 -590h-102l63 319l-111 -52l-54 -267h-102zM323 441l29 149h-102l-39 -201z" />
    <glyph glyph-name="b" unicode="b" horiz-adv-x="383" 
d="M170 690h205q51 0 69.5 -14t18.5 -42l-2 -20l-5 -24l-24 -121q-9 -47 -24.5 -62.5t-46.5 -30.5q18 0 33 -15q10 -13 10 -37l-44 -224q-13 -53 -34 -77q-18 -23 -89 -23h-205zM323 441l30 149h-103l-39 -201zM155 100h103l42 219l-112 -52z" />
    <glyph glyph-name="c" unicode="c" horiz-adv-x="388" 
d="M392 267l-33 -167q-13 -53 -34 -77q-18 -23 -88 -23h-103q-51 0 -70 14t-19 42l2 20q0 16 6 24l95 490q12 53 33 76.5t91 23.5h103q50 0 67 -14q20 -12 20 -41l-3 -23l-5 -22l-15 -78l-111 -53l25 131h-103l-95 -490h103l22 115z" />
    <glyph glyph-name="d" unicode="d" horiz-adv-x="393" 
d="M170 690h205q46 0 67 -14.5t21 -39.5l-4 -25l-3 -21l-96 -490q-13 -53 -34 -77q-18 -23 -89 -23h-205zM258 100l95 490h-103l-95 -490h103z" />
    <glyph glyph-name="e" unicode="e" horiz-adv-x="351" 
d="M170 690h269l-20 -100h-169l-39 -201l186 86l-24 -122l-185 -86l-33 -167h167l-19 -100h-271z" />
    <glyph glyph-name="f" unicode="f" horiz-adv-x="343" 
d="M32 0l138 690h269l-20 -100h-169l-39 -201l186 86l-24 -122l-185 -86l-54 -267h-102z" />
    <glyph glyph-name="g" unicode="g" horiz-adv-x="385" 
d="M134 0q-49 0 -70 15q-19 16 -19 42l2 22l6 21l96 490q13 53 33.5 76.5t89.5 23.5h102q48 0 68.5 -14.5t20.5 -41.5l-2 -20l-5 -24l-20 -101l-114 -53l30 154h-102l-95 -490h102l34 173l-57 -26l24 121l168 79l-87 -447h-205z" />
    <glyph glyph-name="h" unicode="h" horiz-adv-x="383" 
d="M272 690l-61 -301l111 51l52 250h102l-138 -690h-102l64 319l-112 -52l-54 -267h-102l138 690h102z" />
    <glyph glyph-name="i" unicode="i" 
d="M170 690h102l-138 -690h-102z" />
    <glyph glyph-name="j" unicode="j" horiz-adv-x="395" 
d="M134 0q-49 0 -69.5 12t-20.5 39q0 23 5 37l25 122l113 53l-32 -163h103l117 590h102l-117 -590q-13 -53 -34 -77q-18 -23 -89 -23h-103z" />
    <glyph glyph-name="k" unicode="k" horiz-adv-x="435" 
d="M32 0l138 690h102l-56 -276l172 276h117l-190 -308l73 -382h-104l-49 253l-74 -122l-27 -131h-102z" />
    <glyph glyph-name="l" unicode="l" horiz-adv-x="343" 
d="M170 690h102l-117 -590h157l-19 -100h-261z" />
    <glyph glyph-name="m" unicode="m" horiz-adv-x="587" 
d="M148 590q13 53 33.5 76.5t90.5 23.5h102q21 0 30 -12.5t9 -42.5l28 43q9 12 35 12h102q51 0 69.5 -14t18.5 -42l-3 -20l-4 -24l-117 -590h-102l117 590h-103l-116 -590h-102l116 590h-102l-116 -590h-102z" />
    <glyph glyph-name="n" unicode="n" horiz-adv-x="380" 
d="M32 0l138 690h102l-9 -45q18 23 35 34t44 11h33q35 0 59 -23.5t24 -58.5l-2 -18l-117 -590h-102l116 590h-103l-116 -590h-102z" />
    <glyph glyph-name="o" unicode="o" horiz-adv-x="388" 
d="M374 690q46 0 67 -15t21 -39l-4 -25l-4 -21l-95 -490q-13 -53 -34 -77q-18 -23 -89 -23h-102q-51 0 -70 14t-19 42l2 20q0 16 6 24l95 490q12 53 33 76.5t91 23.5h102zM257 100l95 490h-102l-95 -490h102z" />
    <glyph glyph-name="p" unicode="p" horiz-adv-x="395" 
d="M188 267l-54 -267h-102l138 690h205q46 0 67 -14.5t21 -40.5l-2 -23l-5 -22l-44 -219zM323 441l30 149h-103l-39 -202z" />
    <glyph glyph-name="q" unicode="q" horiz-adv-x="428" 
d="M374 690q46 0 67 -15t21 -39l-4 -25l-4 -21l-89 -458l32 -19l-22 -113l-47 26q-8 -8 -34 -19l-25 -5l-33 -2h-102q-51 0 -70 14t-19 42l2 20q0 16 6 24l95 490q12 53 33 76.5t91 23.5h102zM155 100h68l20 101l31 -17l78 406h-102z" />
    <glyph glyph-name="r" unicode="r" horiz-adv-x="425" 
d="M170 690h205q46 0 67 -14.5t21 -40.5l-2 -23l-5 -22l-44 -219l-113 -52l86 -319h-105l-70 277l-22 -10l-54 -267h-102zM323 441l30 149h-103l-39 -202z" />
    <glyph glyph-name="s" unicode="s" horiz-adv-x="405" 
d="M134 0q-51 0 -70 14t-19 42l2 20q0 16 6 24l12 59l112 52l-22 -111h103l42 219l-225 -105l73 376q12 53 33 76.5t91 23.5h103q50 0 68 -14q20 -12 20 -40l-4 -23l-3 -23l-9 -44l-112 -53l18 97h-103l-39 -201l224 104l-75 -393q-13 -53 -34 -77q-18 -23 -89 -23h-103z
" />
    <glyph glyph-name="t" unicode="t" horiz-adv-x="423" 
d="M142 0l118 590h-122l22 100h342l-20 -100h-120l-118 -590h-102z" />
    <glyph glyph-name="u" unicode="u" horiz-adv-x="385" 
d="M272 690l-117 -590h102l117 590h102l-117 -590q-13 -53 -34 -77q-18 -23 -89 -23h-102q-51 0 -70 14t-19 42l2 20q0 16 6 24l117 590h102z" />
    <glyph glyph-name="v" unicode="v" horiz-adv-x="393" 
d="M281 225l93 465h102l-106 -534l-338 -155l138 689h102l-103 -516z" />
    <glyph glyph-name="w" unicode="w" horiz-adv-x="602" 
d="M167 690h102l-119 -590h102l119 590h102l-118 -590h102l118 590h102l-118 -590q-11 -52 -31.5 -76t-90.5 -24h-102q-18 0 -24.5 8t-15.5 47q-20 -55 -62 -55h-102q-51 0 -70 13t-19 43l2 20l4 24z" />
    <glyph glyph-name="x" unicode="x" horiz-adv-x="477" 
d="M42 0l219 377l-55 313h103l31 -173l100 173h118l-188 -328l65 -362h-103l-41 226l-130 -226h-119z" />
    <glyph glyph-name="y" unicode="y" horiz-adv-x="400" 
d="M165 150l-10 -50h102l43 219l-225 -105l95 476h102l-61 -301l112 52l51 249h102l-117 -590q-13 -53 -34 -77q-18 -23 -89 -23h-102q-51 0 -70 14t-19 42l2 20q0 16 6 24z" />
    <glyph glyph-name="z" unicode="z" horiz-adv-x="395" 
d="M320 590h-172l22 100h314l-289 -590h164l-21 -100h-306z" />
    <glyph glyph-name="notequal" unicode="&#x2260;" horiz-adv-x="560" 
d="M421 336h93v-64h-151l-75 -72h226v-64h-287l-120 -118l-43 44l74 74h-93v64h154l75 72h-229v64h287l120 118l46 -44z" />
    <glyph glyph-name="infinity" unicode="&#x221e;" horiz-adv-x="727" 
d="M374 238q-36 -63 -75 -93.5t-86 -30.5q-65 0 -113 52q-45 53 -45 132q0 83 41 134.5t107 51.5q44 0 81.5 -29t68.5 -95q17 33 34 54q10 13 18.5 21.5t19.5 17.5q40 31 89 31q64 0 111 -53l20 -29l16 -31q12 -30 12 -71q0 -81 -41 -133.5t-108 -52.5q-41 0 -86 30
q-36 30 -64 94zM336 327q-25 46 -58.5 69.5t-78.5 23.5q-52 0 -85.5 -35t-33.5 -90q0 -54 29 -89q31 -34 79 -34q38 0 73 31q32 32 75 124zM391 271q21 -45 58 -70q38 -23 79 -23q54 0 86.5 35t32.5 90q0 54 -30.5 88.5t-81.5 34.5q-34 0 -67 -33t-77 -122z" />
    <glyph glyph-name="plusminus" unicode="&#xb1;" horiz-adv-x="560" 
d="M516 19h-472v68h472v-68zM315 331h201v-68h-201v-122h-70v122h-201v68h201v122h70v-122z" />
    <glyph glyph-name="lessequal" unicode="&#x2264;" horiz-adv-x="560" 
d="M516 18h-473v68h473v-68zM166 280l350 -107v-70l-472 145v65l472 145v-70z" />
    <glyph glyph-name="greaterequal" unicode="&#x2265;" horiz-adv-x="560" 
d="M516 18h-473v68h473v-68zM516 248l-473 -145v70l352 107l-352 108v70l473 -145v-65z" />
    <glyph glyph-name="mu" unicode="&#xb5;" horiz-adv-x="588" 
d="M170 153q0 -71 14 -95t50 -24q56 0 96.5 82t40.5 203v130h94v-328q0 -45 9 -66t29 -21t31.5 20.5t11.5 61.5v14h23l1 -9v-13q0 -52 -24.5 -84.5t-67.5 -32.5q-47 0 -77 42q-27 42 -27 130q-21 -87 -61.5 -129.5t-100.5 -42.5q-43 0 -75 26q-27 27 -40 77l-1 -28
q0 -37 6.5 -69t25.5 -73q32 -78 34 -91q0 -18 -12 -30t-32 -12q-21 0 -33 18q-10 20 -10 52l2 58l2 89l-1 101l-2 95v245h94v-296z" />
    <glyph glyph-name="partialdiff" unicode="&#x2202;" horiz-adv-x="504" 
d="M366 287l6 28l3 31l3 89q0 88 -17 127.5t-48 39.5q-18 0 -51 -35t-57 -35q-14 0 -24 6t-13 26q0 25 30 48q15 11 33 17t41 6q78 0 112 -53q15 -24 27 -51q7 -15 13 -31q3 -11 7 -21q13 -55 13 -112q0 -161 -65.5 -270.5t-160.5 -109.5q-65 0 -109.5 51.5t-44.5 136.5
q0 81 53.5 143t126.5 62q46 0 72 -19.5t50 -73.5zM262 349q-51 0 -87.5 -60.5t-36.5 -160.5q0 -57 22 -89q23 -30 64 -30q53 0 88 64t35 151q0 57 -22 91t-63 34z" />
    <glyph glyph-name="summation" unicode="&#x3a3;" horiz-adv-x="727" 
d="M630 643l15 -129h-44q-30 105 -84.5 144t-175.5 39h-134l321 -431l-350 -394h191q126 0 174 32q51 27 85 116h47l-32 -130l-2 -7q-23 -99 -113 -99h-492l397 446l-383 514h470q63 0 84 -15q13 -8 26 -86z" />
    <glyph glyph-name="product" unicode="&#x220f;" horiz-adv-x="839" 
d="M120 -176v880h-90v40h783v-40h-90v-880h90v-40h-270v40h86v880h-415v-880h86v-40h-270v40h90z" />
    <glyph glyph-name="pi" unicode="&#x3c0;" horiz-adv-x="560" 
d="M412 373l-1 -24l-3 -150v-40q0 -88 8 -107q10 -19 31 -19q26 0 44 30q8 15 12 36l4 52h25v-5q0 -80 -26 -118t-82 -38q-54 0 -82 40q-7 13 -17 60q-6 41 -6 104l1 78l3 104l-50 1l-79 2q0 -243 -23 -316t-82 -73q-35 0 -53.5 29t-18.5 86v19h24q0 -23 9 -40
q12 -12 30 -12q41 0 52 41.5t21 113.5l5 68l2 84h-24q-38 0 -58 -12t-31 -41h-23q0 22 1 31.5t7 23.5q10 22 38.5 45t116.5 23l104 -3l154 -3q33 0 49 6t19 22l23 1q0 -49 -23.5 -74.5t-76.5 -25.5h-14z" />
    <glyph glyph-name="integral" unicode="&#x222b;" horiz-adv-x="280" 
d="M289 757q36 0 58 -19q25 -19 25 -48q0 -20 -14 -34t-37 -14q-25 0 -44 31q-15 32 -31 33q-57 0 -57 -310l-3 -98v-15l-1 -39l-4 -66v-27l-4 -30l-11 -85q-6 -48 -30 -101q-20 -50 -63 -83q-39 -33 -82 -33q-37 0 -60 18.5t-23 48.5q0 21 13 34t38 13t41 -30t33 -33
q59 0 59 324l2 84l2 67l2 49l3 54l11 89q8 60 31 108q12 26 27 45.5t35 35.5q40 31 84 31z" />
    <glyph glyph-name="Omega" unicode="&#x3a9;" horiz-adv-x="784" 
d="M605 90q44 0 68 18q22 19 22 68h23v-176h-278v180q75 15 123.5 77t48.5 151q0 106 -60 168.5t-160 62.5q-93 0 -156.5 -62.5t-63.5 -168.5q0 -91 43.5 -149t126.5 -79v-180h-276v176h23q0 -48 19 -67t71 -19h125v59q-117 21 -185.5 90.5t-68.5 168.5q0 117 96 192t246 75
q152 0 246 -73t94 -194q0 -99 -63 -165.5t-189 -93.5v-59h125z" />
    <glyph glyph-name="radical" unicode="&#x221a;" horiz-adv-x="560" 
d="M606 764h-59l-296 -784h-32l-158 431l-63 -22l-12 39l140 48l128 -346l257 681h95v-47z" />
    <glyph glyph-name="approxequal" unicode="&#x2248;" horiz-adv-x="560" 
d="M15 100v77l45 25l44 19q40 14 76 14q40 0 113 -24t105 -24q24 0 59 15t87 52v-78l-41 -25l-36 -17l-31 -8q-20 -4 -29 -4.5t-14 -0.5q-24 0 -42 5l-64 18q-75 24 -118 24q-30 0 -57 -12l-23 -11l-24 -13l-25 -14zM15 219v77l45 25l51 21q31 11 68 11q38 0 115 -24
q36 -11 62.5 -17t41.5 -6q30 0 62 14q16 7 36.5 19.5t47.5 32.5v-77l-41 -24q-18 -11 -47 -21t-63 -10q-17 0 -24 1t-24 4.5t-59 17.5q-74 24 -112 24l-36 -3q-16 -3 -36 -12.5t-87 -52.5z" />
    <glyph glyph-name="Delta" unicode="&#x2206;" horiz-adv-x="624" 
d="M607 0h-586l282 672h22zM94 45h381l-190 459z" />
    <glyph glyph-name="nonbreakingspace" unicode="&#xa0;" horiz-adv-x="505" 
 />
    <glyph glyph-name="quotedblleft" unicode="&#x201c;" horiz-adv-x="333" 
d="M281 689l-47 -63h61l-18 -103h-105l21 103l48 63h40zM136 689l-44 -63h58l-18 -103h-104l21 103l50 63h37z" />
    <glyph glyph-name="quotedblright" unicode="&#x201d;" horiz-adv-x="333" 
d="M57 524l44 66h-60l20 100h104l-23 -100l-48 -66h-37zM199 524l44 66h-58l18 100h104l-21 -100l-50 -66h-37z" />
    <glyph glyph-name="quoteleft" unicode="&#x2018;" 
d="M136 689l-44 -66h58l-18 -100h-104l21 100l50 66h37z" />
    <glyph glyph-name="quoteright" unicode="&#x2019;" 
d="M57 524l44 66h-60l20 100h104l-23 -100l-48 -66h-37z" />
    <glyph glyph-name="divide" unicode="&#xf7;" horiz-adv-x="560" 
d="M281 158q24 0 40 -16t16 -41q0 -24 -17 -40q-15 -17 -39 -17q-26 0 -43 17q-16 19 -16 40q0 22 18.5 39.5t40.5 17.5zM516 202h-473v68h473v-68zM281 427q22 0 39 -18.5t17 -38.5q0 -24 -17 -40q-15 -17 -39 -17q-26 0 -43 16q-16 19 -16 41t18.5 39.5t40.5 17.5z" />
    <glyph glyph-name="lozenge" unicode="&#x25ca;" horiz-adv-x="504" 
d="M251 807l250 -518l-250 -522l-248 522zM251 688l-190 -399l190 -403l192 403z" />
    <glyph glyph-name="apple" unicode="&#xf000;" horiz-adv-x="806" 
d="M416 594l-1 7v11q0 60 45 111t121 65v-12l1 -18q0 -63 -51.5 -114t-102.5 -51h-4zM749 197q-25 -55 -54 -103q-22 -39 -49 -65q-46 -46 -101 -46q-25 0 -64 16q-48 16 -62 16q-23 0 -66.5 -15t-61.5 -17q-29 0 -65 21l-31 27l-50 60q-30 43 -60 121q-14 41 -21 76l-5 36
l-2 36q0 109 63 175.5t160 66.5l33 -3l26 -6l30 -12l26 -9l23 -4q19 0 63 17t73 17q60 0 99 -20q40 -16 80 -60q-46 -28 -73 -68.5t-27 -91.5q0 -53 29.5 -95.5t86.5 -69.5z" />
  </font>
</defs>
</svg>
